<mxfile host="app.diagrams.net" agent="Mozilla/5.0 (Windows NT 10.0; Win64; x64) AppleWebKit/537.36 (KHTML, like Gecko) Chrome/128.0.0.0 Safari/537.36" version="24.7.10">
  <diagram name="Page-1" id="e7e014a7-5840-1c2e-5031-d8a46d1fe8dd">
    <mxGraphModel dx="-618" dy="835" grid="1" gridSize="10" guides="1" tooltips="1" connect="1" arrows="1" fold="1" page="1" pageScale="1" pageWidth="1169" pageHeight="826" background="none" math="0" shadow="0">
      <root>
        <mxCell id="0" />
        <mxCell id="1" parent="0" />
        <mxCell id="NOzaVNacayd4FeLLrLZB-298" value="Nhân viên an ninh" style="swimlane;whiteSpace=wrap" parent="1" vertex="1">
          <mxGeometry x="3641" y="100" width="289" height="930" as="geometry" />
        </mxCell>
        <mxCell id="kZQ03gNKZHDd4sTlV5Zk-209" value="Lấy thông tin" style="rounded=1;whiteSpace=wrap;html=1;arcSize=40;fontColor=#000000;fillColor=#ffffc0;strokeColor=#ff0000;" parent="NOzaVNacayd4FeLLrLZB-298" vertex="1">
          <mxGeometry x="129" y="280" width="120" height="40" as="geometry" />
        </mxCell>
        <mxCell id="kZQ03gNKZHDd4sTlV5Zk-212" value="Kiểm tra sự cố" style="rounded=1;whiteSpace=wrap;html=1;arcSize=40;fontColor=#000000;fillColor=#ffffc0;strokeColor=#ff0000;" parent="NOzaVNacayd4FeLLrLZB-298" vertex="1">
          <mxGeometry x="129" y="338" width="120" height="40" as="geometry" />
        </mxCell>
        <mxCell id="kZQ03gNKZHDd4sTlV5Zk-213" value="Lập biên bản sự cố" style="rounded=1;whiteSpace=wrap;html=1;arcSize=40;fontColor=#000000;fillColor=#ffffc0;strokeColor=#ff0000;" parent="NOzaVNacayd4FeLLrLZB-298" vertex="1">
          <mxGeometry x="129" y="410" width="120" height="40" as="geometry" />
        </mxCell>
        <mxCell id="kZQ03gNKZHDd4sTlV5Zk-218" value="" style="edgeStyle=orthogonalEdgeStyle;html=1;verticalAlign=bottom;endArrow=open;endSize=8;strokeColor=#ff0000;rounded=0;exitX=0.5;exitY=1;exitDx=0;exitDy=0;entryX=0.25;entryY=0.5;entryDx=0;entryDy=0;entryPerimeter=0;" parent="NOzaVNacayd4FeLLrLZB-298" edge="1">
          <mxGeometry relative="1" as="geometry">
            <mxPoint x="188.9300000000003" y="495" as="targetPoint" />
            <Array as="points">
              <mxPoint x="188.9300000000003" y="470" />
              <mxPoint x="188.9300000000003" y="470" />
            </Array>
            <mxPoint x="188.9300000000003" y="450" as="sourcePoint" />
          </mxGeometry>
        </mxCell>
        <mxCell id="kZQ03gNKZHDd4sTlV5Zk-219" value="" style="shape=line;html=1;strokeWidth=6;strokeColor=#ff0000;" parent="NOzaVNacayd4FeLLrLZB-298" vertex="1">
          <mxGeometry x="149" y="490" width="80" height="10" as="geometry" />
        </mxCell>
        <mxCell id="kZQ03gNKZHDd4sTlV5Zk-221" value="" style="edgeStyle=orthogonalEdgeStyle;html=1;verticalAlign=bottom;endArrow=open;endSize=8;strokeColor=#ff0000;rounded=0;exitX=0.5;exitY=1;exitDx=0;exitDy=0;" parent="NOzaVNacayd4FeLLrLZB-298" edge="1">
          <mxGeometry relative="1" as="geometry">
            <mxPoint x="329" y="530" as="targetPoint" />
            <Array as="points">
              <mxPoint x="209" y="510" />
              <mxPoint x="209" y="510" />
            </Array>
            <mxPoint x="209" y="500" as="sourcePoint" />
          </mxGeometry>
        </mxCell>
        <mxCell id="kZQ03gNKZHDd4sTlV5Zk-223" value="" style="edgeStyle=orthogonalEdgeStyle;html=1;verticalAlign=bottom;endArrow=open;endSize=8;strokeColor=#ff0000;rounded=0;exitX=0.5;exitY=1;exitDx=0;exitDy=0;" parent="NOzaVNacayd4FeLLrLZB-298" edge="1">
          <mxGeometry relative="1" as="geometry">
            <mxPoint x="-421" y="530" as="targetPoint" />
            <Array as="points">
              <mxPoint x="189" y="530" />
              <mxPoint x="-410" y="530" />
            </Array>
            <mxPoint x="188.71000000000004" y="500" as="sourcePoint" />
          </mxGeometry>
        </mxCell>
        <mxCell id="kZQ03gNKZHDd4sTlV5Zk-225" value="" style="edgeStyle=orthogonalEdgeStyle;html=1;verticalAlign=bottom;endArrow=open;endSize=8;strokeColor=#ff0000;rounded=0;exitX=0.403;exitY=0.99;exitDx=0;exitDy=0;exitPerimeter=0;entryX=1;entryY=0.5;entryDx=0;entryDy=0;" parent="NOzaVNacayd4FeLLrLZB-298" target="kZQ03gNKZHDd4sTlV5Zk-205" edge="1">
          <mxGeometry relative="1" as="geometry">
            <mxPoint x="169" y="580" as="targetPoint" />
            <Array as="points">
              <mxPoint x="169" y="600" />
            </Array>
            <mxPoint x="169" y="500" as="sourcePoint" />
          </mxGeometry>
        </mxCell>
        <mxCell id="kZQ03gNKZHDd4sTlV5Zk-245" value="Hết hạn hợp đồng?" style="rhombus;whiteSpace=wrap;html=1;fontColor=#000000;fillColor=#ffffc0;strokeColor=#ff0000;" parent="NOzaVNacayd4FeLLrLZB-298" vertex="1">
          <mxGeometry x="143.5" y="670" width="105.5" height="62" as="geometry" />
        </mxCell>
        <mxCell id="kZQ03gNKZHDd4sTlV5Zk-246" value="" style="edgeStyle=orthogonalEdgeStyle;html=1;verticalAlign=bottom;endArrow=open;endSize=8;strokeColor=#ff0000;rounded=0;exitX=0.616;exitY=0.825;exitDx=0;exitDy=0;entryX=0.5;entryY=0;entryDx=0;entryDy=0;exitPerimeter=0;" parent="NOzaVNacayd4FeLLrLZB-298" source="kZQ03gNKZHDd4sTlV5Zk-219" target="kZQ03gNKZHDd4sTlV5Zk-245" edge="1">
          <mxGeometry relative="1" as="geometry">
            <mxPoint x="209" y="655" as="targetPoint" />
            <Array as="points">
              <mxPoint x="196" y="498" />
            </Array>
            <mxPoint x="209" y="610" as="sourcePoint" />
          </mxGeometry>
        </mxCell>
        <mxCell id="kZQ03gNKZHDd4sTlV5Zk-253" value="Có" style="text;html=1;align=center;verticalAlign=middle;whiteSpace=wrap;rounded=0;" parent="NOzaVNacayd4FeLLrLZB-298" vertex="1">
          <mxGeometry x="229" y="670" width="60" height="20" as="geometry" />
        </mxCell>
        <mxCell id="kZQ03gNKZHDd4sTlV5Zk-193" value="" style="ellipse;shape=endState;fillColor=#000000;strokeColor=#ff0000" parent="NOzaVNacayd4FeLLrLZB-298" vertex="1">
          <mxGeometry x="169" y="870" width="30" height="32" as="geometry" />
        </mxCell>
        <mxCell id="kZQ03gNKZHDd4sTlV5Zk-188" value="Hệ thống" style="swimlane;whiteSpace=wrap" parent="1" vertex="1">
          <mxGeometry x="3360" y="100" width="281" height="930" as="geometry" />
        </mxCell>
        <mxCell id="kZQ03gNKZHDd4sTlV5Zk-189" value="Nhân viên bảo trì" style="swimlane;whiteSpace=wrap" parent="kZQ03gNKZHDd4sTlV5Zk-188" vertex="1">
          <mxGeometry width="281" height="930" as="geometry" />
        </mxCell>
        <mxCell id="kZQ03gNKZHDd4sTlV5Zk-190" value="Đi sửa chữa" style="rounded=1;whiteSpace=wrap;html=1;arcSize=40;fontColor=#000000;fillColor=#ffffc0;strokeColor=#ff0000;" parent="kZQ03gNKZHDd4sTlV5Zk-189" vertex="1">
          <mxGeometry x="75.5" y="160" width="120" height="40" as="geometry" />
        </mxCell>
        <mxCell id="kZQ03gNKZHDd4sTlV5Zk-191" value="Lấy thông tin" style="rounded=1;whiteSpace=wrap;html=1;arcSize=40;fontColor=#000000;fillColor=#ffffc0;strokeColor=#ff0000;" parent="kZQ03gNKZHDd4sTlV5Zk-189" vertex="1">
          <mxGeometry x="80.5" y="90" width="120" height="40" as="geometry" />
        </mxCell>
        <mxCell id="kZQ03gNKZHDd4sTlV5Zk-192" value="" style="shape=line;html=1;strokeWidth=6;strokeColor=#ff0000;" parent="kZQ03gNKZHDd4sTlV5Zk-189" vertex="1">
          <mxGeometry x="115.5" y="240" width="80" height="10" as="geometry" />
        </mxCell>
        <mxCell id="kZQ03gNKZHDd4sTlV5Zk-195" value="" style="edgeStyle=orthogonalEdgeStyle;html=1;verticalAlign=bottom;endArrow=open;endSize=8;strokeColor=#ff0000;rounded=0;exitX=0.5;exitY=1;exitDx=0;exitDy=0;entryX=0.25;entryY=0.5;entryDx=0;entryDy=0;entryPerimeter=0;" parent="kZQ03gNKZHDd4sTlV5Zk-189" source="kZQ03gNKZHDd4sTlV5Zk-190" target="kZQ03gNKZHDd4sTlV5Zk-192" edge="1">
          <mxGeometry relative="1" as="geometry">
            <mxPoint x="111" y="313" as="targetPoint" />
            <Array as="points" />
            <mxPoint x="110" y="260" as="sourcePoint" />
          </mxGeometry>
        </mxCell>
        <mxCell id="kZQ03gNKZHDd4sTlV5Zk-198" value="" style="ellipse;shape=startState;fillColor=#000000;strokeColor=#ff0000;" parent="kZQ03gNKZHDd4sTlV5Zk-189" vertex="1">
          <mxGeometry x="120.5" y="30" width="30" height="30" as="geometry" />
        </mxCell>
        <mxCell id="kZQ03gNKZHDd4sTlV5Zk-199" value="" style="edgeStyle=elbowEdgeStyle;elbow=horizontal;verticalAlign=bottom;endArrow=open;endSize=8;strokeColor=#FF0000;endFill=1;rounded=0;entryX=0.457;entryY=0.009;entryDx=0;entryDy=0;entryPerimeter=0;exitX=0.488;exitY=0.799;exitDx=0;exitDy=0;exitPerimeter=0;" parent="kZQ03gNKZHDd4sTlV5Zk-189" source="kZQ03gNKZHDd4sTlV5Zk-198" target="kZQ03gNKZHDd4sTlV5Zk-191" edge="1">
          <mxGeometry x="-5570" y="-830" as="geometry">
            <mxPoint x="135" y="123" as="targetPoint" />
            <Array as="points">
              <mxPoint x="135" y="120" />
              <mxPoint x="-210" y="90" />
            </Array>
          </mxGeometry>
        </mxCell>
        <mxCell id="kZQ03gNKZHDd4sTlV5Zk-196" value="Hệ thống" style="swimlane;whiteSpace=wrap" parent="1" vertex="1">
          <mxGeometry x="3922" y="100" width="281" height="930" as="geometry" />
        </mxCell>
        <mxCell id="kZQ03gNKZHDd4sTlV5Zk-206" value="Danh sách phiếu hỗ trợ" style="rounded=1;whiteSpace=wrap;html=1;arcSize=40;fontColor=#000000;fillColor=#ffffc0;strokeColor=#ff0000;" parent="kZQ03gNKZHDd4sTlV5Zk-196" vertex="1">
          <mxGeometry x="68" y="92" width="120" height="40" as="geometry" />
        </mxCell>
        <mxCell id="kZQ03gNKZHDd4sTlV5Zk-203" value="Lưu thông tin bảo trì" style="rounded=1;whiteSpace=wrap;html=1;arcSize=40;fontColor=#000000;fillColor=#ffffc0;strokeColor=#ff0000;" parent="kZQ03gNKZHDd4sTlV5Zk-196" vertex="1">
          <mxGeometry x="78" y="220" width="120" height="40" as="geometry" />
        </mxCell>
        <mxCell id="kZQ03gNKZHDd4sTlV5Zk-207" value="Danh sách sự cố" style="rounded=1;whiteSpace=wrap;html=1;arcSize=40;fontColor=#000000;fillColor=#ffffc0;strokeColor=#ff0000;" parent="kZQ03gNKZHDd4sTlV5Zk-196" vertex="1">
          <mxGeometry x="78" y="290" width="120" height="40" as="geometry" />
        </mxCell>
        <mxCell id="kZQ03gNKZHDd4sTlV5Zk-222" value="Lưu biên bản" style="rounded=1;whiteSpace=wrap;html=1;arcSize=40;fontColor=#000000;fillColor=#ffffc0;strokeColor=#ff0000;" parent="kZQ03gNKZHDd4sTlV5Zk-196" vertex="1">
          <mxGeometry x="48" y="510" width="120" height="40" as="geometry" />
        </mxCell>
        <mxCell id="kZQ03gNKZHDd4sTlV5Zk-227" value="Lưu thông itn sinh trắc học" style="rounded=1;whiteSpace=wrap;html=1;arcSize=40;fontColor=#000000;fillColor=#ffffc0;strokeColor=#ff0000;" parent="kZQ03gNKZHDd4sTlV5Zk-196" vertex="1">
          <mxGeometry x="48" y="570" width="120" height="40" as="geometry" />
        </mxCell>
        <mxCell id="kZQ03gNKZHDd4sTlV5Zk-247" value="Xóa thông tin sinh trắc học" style="rounded=1;whiteSpace=wrap;html=1;arcSize=40;fontColor=#000000;fillColor=#ffffc0;strokeColor=#ff0000;" parent="kZQ03gNKZHDd4sTlV5Zk-196" vertex="1">
          <mxGeometry x="58" y="690" width="120" height="40" as="geometry" />
        </mxCell>
        <mxCell id="kZQ03gNKZHDd4sTlV5Zk-200" value="" style="edgeStyle=elbowEdgeStyle;elbow=horizontal;verticalAlign=bottom;endArrow=open;endSize=8;strokeColor=#FF0000;endFill=1;rounded=0;exitX=1.004;exitY=0.642;exitDx=0;exitDy=0;exitPerimeter=0;entryX=0;entryY=0.5;entryDx=0;entryDy=0;" parent="1" source="kZQ03gNKZHDd4sTlV5Zk-191" target="kZQ03gNKZHDd4sTlV5Zk-206" edge="1">
          <mxGeometry x="-230" y="40" as="geometry">
            <mxPoint x="3680" y="216" as="targetPoint" />
            <Array as="points">
              <mxPoint x="3780" y="216" />
              <mxPoint x="3610" y="260" />
              <mxPoint x="3245" y="266" />
            </Array>
            <mxPoint x="3590" y="250" as="sourcePoint" />
          </mxGeometry>
        </mxCell>
        <mxCell id="kZQ03gNKZHDd4sTlV5Zk-201" value="" style="edgeStyle=elbowEdgeStyle;elbow=horizontal;verticalAlign=bottom;endArrow=open;endSize=8;strokeColor=#FF0000;endFill=1;rounded=0;exitX=0.5;exitY=1;exitDx=0;exitDy=0;entryX=0.988;entryY=0.513;entryDx=0;entryDy=0;entryPerimeter=0;" parent="1" source="kZQ03gNKZHDd4sTlV5Zk-206" target="kZQ03gNKZHDd4sTlV5Zk-190" edge="1">
          <mxGeometry x="-230" y="40" as="geometry">
            <mxPoint x="3570" y="365" as="targetPoint" />
            <Array as="points">
              <mxPoint x="4050" y="260" />
              <mxPoint x="3404" y="326" />
            </Array>
            <mxPoint x="4021" y="270" as="sourcePoint" />
          </mxGeometry>
        </mxCell>
        <mxCell id="kZQ03gNKZHDd4sTlV5Zk-202" value="" style="edgeStyle=orthogonalEdgeStyle;html=1;verticalAlign=bottom;endArrow=open;endSize=8;strokeColor=#ff0000;rounded=0;exitX=0.75;exitY=0.5;exitDx=0;exitDy=0;entryX=0;entryY=0.5;entryDx=0;entryDy=0;exitPerimeter=0;" parent="1" source="kZQ03gNKZHDd4sTlV5Zk-192" target="kZQ03gNKZHDd4sTlV5Zk-203" edge="1">
          <mxGeometry relative="1" as="geometry">
            <mxPoint x="3540" y="465" as="targetPoint" />
            <Array as="points">
              <mxPoint x="3536" y="360" />
              <mxPoint x="3970" y="360" />
              <mxPoint x="3970" y="340" />
            </Array>
            <mxPoint x="3540" y="410" as="sourcePoint" />
          </mxGeometry>
        </mxCell>
        <mxCell id="kZQ03gNKZHDd4sTlV5Zk-204" value="Khách hàng" style="swimlane;whiteSpace=wrap" parent="1" vertex="1">
          <mxGeometry x="3030" y="100" width="330" height="930" as="geometry" />
        </mxCell>
        <mxCell id="kZQ03gNKZHDd4sTlV5Zk-205" value="Lấy thông tin sinh trắc học" style="rounded=1;whiteSpace=wrap;html=1;arcSize=40;fontColor=#000000;fillColor=#ffffc0;strokeColor=#ff0000;" parent="kZQ03gNKZHDd4sTlV5Zk-204" vertex="1">
          <mxGeometry x="70" y="580" width="120" height="40" as="geometry" />
        </mxCell>
        <mxCell id="kZQ03gNKZHDd4sTlV5Zk-224" value="Gửi biên bản sự cố" style="rounded=1;whiteSpace=wrap;html=1;arcSize=40;fontColor=#000000;fillColor=#ffffc0;strokeColor=#ff0000;" parent="kZQ03gNKZHDd4sTlV5Zk-204" vertex="1">
          <mxGeometry x="70" y="505" width="120" height="40" as="geometry" />
        </mxCell>
        <mxCell id="kZQ03gNKZHDd4sTlV5Zk-208" value="" style="edgeStyle=orthogonalEdgeStyle;html=1;verticalAlign=bottom;endArrow=open;endSize=8;strokeColor=#ff0000;rounded=0;exitX=0.482;exitY=0.655;exitDx=0;exitDy=0;exitPerimeter=0;" parent="1" source="kZQ03gNKZHDd4sTlV5Zk-192" edge="1">
          <mxGeometry relative="1" as="geometry">
            <mxPoint x="3770" y="400" as="targetPoint" />
            <Array as="points">
              <mxPoint x="3514" y="400" />
            </Array>
            <mxPoint x="3550" y="400" as="sourcePoint" />
          </mxGeometry>
        </mxCell>
        <mxCell id="kZQ03gNKZHDd4sTlV5Zk-210" value="" style="edgeStyle=orthogonalEdgeStyle;html=1;verticalAlign=bottom;endArrow=open;endSize=8;strokeColor=#ff0000;rounded=0;exitX=1;exitY=0.5;exitDx=0;exitDy=0;entryX=0;entryY=0.5;entryDx=0;entryDy=0;" parent="1" source="kZQ03gNKZHDd4sTlV5Zk-209" target="kZQ03gNKZHDd4sTlV5Zk-207" edge="1">
          <mxGeometry relative="1" as="geometry">
            <mxPoint x="3970" y="445" as="targetPoint" />
            <Array as="points" />
            <mxPoint x="3970" y="400" as="sourcePoint" />
          </mxGeometry>
        </mxCell>
        <mxCell id="kZQ03gNKZHDd4sTlV5Zk-211" value="" style="edgeStyle=orthogonalEdgeStyle;html=1;verticalAlign=bottom;endArrow=open;endSize=8;strokeColor=#ff0000;rounded=0;exitX=0.5;exitY=1;exitDx=0;exitDy=0;entryX=1;entryY=0.5;entryDx=0;entryDy=0;" parent="1" source="kZQ03gNKZHDd4sTlV5Zk-207" target="kZQ03gNKZHDd4sTlV5Zk-212" edge="1">
          <mxGeometry relative="1" as="geometry">
            <mxPoint x="3970" y="495" as="targetPoint" />
            <Array as="points">
              <mxPoint x="4060" y="460" />
              <mxPoint x="3970" y="460" />
              <mxPoint x="3970" y="458" />
            </Array>
            <mxPoint x="3970" y="450" as="sourcePoint" />
          </mxGeometry>
        </mxCell>
        <mxCell id="kZQ03gNKZHDd4sTlV5Zk-216" value="" style="edgeStyle=orthogonalEdgeStyle;html=1;verticalAlign=bottom;endArrow=open;endSize=8;strokeColor=#ff0000;rounded=0;exitX=0.403;exitY=0.99;exitDx=0;exitDy=0;exitPerimeter=0;" parent="1" source="kZQ03gNKZHDd4sTlV5Zk-212" edge="1">
          <mxGeometry relative="1" as="geometry">
            <mxPoint x="3818" y="510" as="targetPoint" />
            <Array as="points" />
            <mxPoint x="3820" y="490" as="sourcePoint" />
          </mxGeometry>
        </mxCell>
        <mxCell id="kZQ03gNKZHDd4sTlV5Zk-226" value="" style="edgeStyle=orthogonalEdgeStyle;html=1;verticalAlign=bottom;endArrow=open;endSize=8;strokeColor=#ff0000;rounded=0;exitX=0.5;exitY=1;exitDx=0;exitDy=0;entryX=0.5;entryY=1;entryDx=0;entryDy=0;" parent="1" source="kZQ03gNKZHDd4sTlV5Zk-205" target="kZQ03gNKZHDd4sTlV5Zk-227" edge="1">
          <mxGeometry relative="1" as="geometry">
            <mxPoint x="3300" y="750" as="targetPoint" />
            <Array as="points">
              <mxPoint x="3160" y="750" />
              <mxPoint x="4030" y="750" />
            </Array>
            <mxPoint x="3220" y="730" as="sourcePoint" />
          </mxGeometry>
        </mxCell>
        <mxCell id="kZQ03gNKZHDd4sTlV5Zk-249" value="" style="edgeStyle=orthogonalEdgeStyle;html=1;verticalAlign=bottom;endArrow=open;endSize=8;strokeColor=#ff0000;rounded=0;exitX=1;exitY=0.5;exitDx=0;exitDy=0;entryX=0;entryY=0.5;entryDx=0;entryDy=0;" parent="1" source="kZQ03gNKZHDd4sTlV5Zk-245" target="kZQ03gNKZHDd4sTlV5Zk-247" edge="1">
          <mxGeometry relative="1" as="geometry">
            <mxPoint x="3960" y="845" as="targetPoint" />
            <Array as="points">
              <mxPoint x="3960" y="801" />
              <mxPoint x="3960" y="810" />
            </Array>
            <mxPoint x="3960" y="800" as="sourcePoint" />
          </mxGeometry>
        </mxCell>
        <mxCell id="kZQ03gNKZHDd4sTlV5Zk-250" value="" style="edgeStyle=orthogonalEdgeStyle;html=1;verticalAlign=bottom;endArrow=open;endSize=8;strokeColor=#ff0000;rounded=0;exitX=0.5;exitY=1;exitDx=0;exitDy=0;" parent="1" source="kZQ03gNKZHDd4sTlV5Zk-245" edge="1">
          <mxGeometry relative="1" as="geometry">
            <mxPoint x="3837" y="900" as="targetPoint" />
            <Array as="points">
              <mxPoint x="3837" y="860" />
              <mxPoint x="3837" y="900" />
            </Array>
            <mxPoint x="3820" y="860" as="sourcePoint" />
          </mxGeometry>
        </mxCell>
        <mxCell id="kZQ03gNKZHDd4sTlV5Zk-251" value="" style="shape=line;html=1;strokeWidth=6;strokeColor=#ff0000;" parent="1" vertex="1">
          <mxGeometry x="3740" y="850" width="150" height="110" as="geometry" />
        </mxCell>
        <mxCell id="kZQ03gNKZHDd4sTlV5Zk-252" value="" style="edgeStyle=orthogonalEdgeStyle;html=1;verticalAlign=bottom;endArrow=open;endSize=8;strokeColor=#ff0000;rounded=0;exitX=0;exitY=0.5;exitDx=0;exitDy=0;" parent="1" source="kZQ03gNKZHDd4sTlV5Zk-224" edge="1">
          <mxGeometry relative="1" as="geometry">
            <mxPoint x="3757" y="900" as="targetPoint" />
            <Array as="points">
              <mxPoint x="3060" y="625" />
              <mxPoint x="3060" y="830" />
              <mxPoint x="3757" y="830" />
            </Array>
            <mxPoint x="3090" y="630" as="sourcePoint" />
          </mxGeometry>
        </mxCell>
        <mxCell id="kZQ03gNKZHDd4sTlV5Zk-255" value="Không" style="text;html=1;align=center;verticalAlign=middle;whiteSpace=wrap;rounded=0;" parent="1" vertex="1">
          <mxGeometry x="3780" y="840" width="60" height="30" as="geometry" />
        </mxCell>
        <mxCell id="kZQ03gNKZHDd4sTlV5Zk-256" value="" style="edgeStyle=orthogonalEdgeStyle;html=1;verticalAlign=bottom;endArrow=open;endSize=8;strokeColor=#ff0000;rounded=0;exitX=0.442;exitY=1.037;exitDx=0;exitDy=0;exitPerimeter=0;entryX=0.853;entryY=0.494;entryDx=0;entryDy=0;entryPerimeter=0;" parent="1" source="kZQ03gNKZHDd4sTlV5Zk-247" target="kZQ03gNKZHDd4sTlV5Zk-251" edge="1">
          <mxGeometry relative="1" as="geometry">
            <mxPoint x="3900" y="880" as="targetPoint" />
            <Array as="points">
              <mxPoint x="4030" y="832" />
              <mxPoint x="4030" y="880" />
              <mxPoint x="3868" y="880" />
            </Array>
            <mxPoint x="4030" y="880" as="sourcePoint" />
          </mxGeometry>
        </mxCell>
        <mxCell id="kZQ03gNKZHDd4sTlV5Zk-257" value="" style="edgeStyle=orthogonalEdgeStyle;html=1;verticalAlign=bottom;endArrow=open;endSize=8;strokeColor=#ff0000;rounded=0;exitX=0.5;exitY=1;exitDx=0;exitDy=0;entryX=0.307;entryY=-0.005;entryDx=0;entryDy=0;entryPerimeter=0;" parent="1" target="kZQ03gNKZHDd4sTlV5Zk-193" edge="1">
          <mxGeometry relative="1" as="geometry">
            <mxPoint x="3820" y="945" as="targetPoint" />
            <Array as="points">
              <mxPoint x="3820" y="920" />
              <mxPoint x="3819" y="920" />
            </Array>
            <mxPoint x="3820" y="900" as="sourcePoint" />
          </mxGeometry>
        </mxCell>
      </root>
    </mxGraphModel>
  </diagram>
</mxfile>
